# xmcd
#
# Track frame offsets:
#	150
#	15501
#	38034
#	53220
#	71141
#	85285
#	99102
#	112020
#	133284
#	152016
#	166552
#	187749
#	204230
#	220666
#	238472
#	255849
#	270205
#	284561
#	299826
#
# Disc length: 4188 seconds
#
# Revision: 1
# Processed by: cddbd v1.5.2PL0 Copyright (c) Steve Scherf et al.
# Submitted via: audiograbber 1.83.01
#
DISCID=0a105a13
DTITLE=Various Artist - Now That's What I Call Country Vol.7
DYEAR=2014
DGENRE=Country
TTITLE0=Luke Bryan - Drink A Beer
TTITLE1=Darius Rucker - Wagon Wheel
TTITLE2=Florida Georgia Line - Stay
TTITLE3=Hunter Hayes - I Want Crazy
TTITLE4=Lady Antebellum - Compass
TTITLE5=Brett Eldredge - Don't Ya
TTITLE6=Eric Pasley - Friday Night
TTITLE7=Brad Paisley - Beat This Summer
TTITLE8=Carrie Underwood - See You Again
TTITLE9=Keith Urban - We Were Us
TTITLE10=Dierks Bentley - I Hold On
TTITLE11=Cassadee Pope - Wasting All These Tears
TTITLE12=Tyler Farr - Redneck Crazy
TTITLE13=David Nail - Whatever She's Got
TTITLE14=Scotty McCreery - See You Tonight
TTITLE15=Chris Young - Aw Naw
TTITLE16=Thomas Rhett - Get Me Some Of That
TTITLE17=Parmalee - Carolina
TTITLE18=Leah Turner - Pull Me Back
EXTD=
EXTT0=
EXTT1=
EXTT2=
EXTT3=
EXTT4=
EXTT5=
EXTT6=
EXTT7=
EXTT8=
EXTT9=
EXTT10=
EXTT11=
EXTT12=
EXTT13=
EXTT14=
EXTT15=
EXTT16=
EXTT17=
EXTT18=
PLAYORDER=
